<?xml version="1.0" encoding="utf-8"?>
<!-- Generator: Adobe Illustrator 16.0.0, SVG Export Plug-In . SVG Version: 6.00 Build 0)  -->
<!DOCTYPE svg PUBLIC "-//W3C//DTD SVG 1.1//EN" "http://www.w3.org/Graphics/SVG/1.1/DTD/svg11.dtd">
<svg version="1.1" id="Layer_1" xmlns="http://www.w3.org/2000/svg" xmlns:xlink="http://www.w3.org/1999/xlink" x="0px" y="0px"
	 width="472px" height="334px" viewBox="0 0 472 334" enable-background="new 0 0 472 334" xml:space="preserve">
<path fill-rule="evenodd" clip-rule="evenodd" fill="#FFFFFF" d="M141.645,293.663c6.212,0,37.285,9.314,43.498,9.314
	c9.324,0,37.286-9.314,46.61-9.314c6.212,0,37.286,9.314,46.61,9.314c6.211,0,37.285-9.314,46.607-9.314
	c6.213,0,37.285,9.314,46.601,9.314c6.223,0,34.183-6.213,52.821-15.518c-3.101-3.101-3.101-6.213-12.426-6.213
	c-6.213,0-34.173,9.314-40.396,9.314c-9.315,0-40.388-9.314-46.601-9.314c-9.322,0-40.396,9.314-46.607,9.314
	c-9.324,0-37.287-9.314-46.61-9.314c-6.213,0-37.286,9.314-46.61,9.314c-6.212,0-37.285-9.314-46.599-9.314
	c-6.223,0-37.285,9.314-43.508,9.314c-9.314,0-34.174-9.314-43.499-9.314c-6.212,0-6.212,0-9.313,3.112
	c3.101,9.304,40.387,18.618,49.71,18.618C101.258,302.978,132.321,293.663,141.645,293.663z"/>
<path fill-rule="evenodd" clip-rule="evenodd" fill="#FFFFFF" d="M141.645,324.697c6.212,0,37.285,9.303,43.498,9.303
	c9.324,0,37.286-9.303,46.61-9.303c6.212,0,37.286,9.303,46.61,9.303c6.211,0,37.285-9.303,46.607-9.303
	c6.213,0,37.285,9.303,46.601,9.303c6.223,0,34.183-6.203,52.821-15.516c-3.101-3.103-3.101-6.203-12.426-6.203
	c-6.213,0-34.173,9.304-40.396,9.304c-9.315,0-40.388-9.304-46.601-9.304c-9.322,0-40.396,9.304-46.607,9.304
	c-9.324,0-37.287-9.304-46.61-9.304c-6.213,0-37.286,9.304-46.61,9.304c-6.212,0-37.285-9.304-46.599-9.304
	c-6.223,0-37.285,9.304-43.508,9.304c-9.314,0-34.174-9.304-43.499-9.304c-6.212,0-6.212,0-9.313,3.101
	C45.325,324.697,82.611,334,91.934,334C101.258,334,132.321,324.697,141.645,324.697z"/>
<path fill-rule="evenodd" clip-rule="evenodd" fill="#FFFFFF" stroke="#FFFFFF" stroke-width="3" stroke-linecap="round" stroke-linejoin="round" stroke-miterlimit="10" d="
	M91.934,26.821c46.609,12.415,102.533-6.203,142.929,55.853C303.222,2,390.218,48.539,471,2
	c-6.212,102.393-142.929,145.832-186.427,192.371c-18.637,15.518-15.535,55.854-12.424,77.573c-12.437,0-19.475-4.533-40.397-6.203
	c-19.423-1.552-21.749,9.304-34.174,6.203c-3.111-21.719,3.101-46.54-9.324-65.158c-43.498-68.258-127.392-68.258-170.891-142.73
	C8.04,48.539,1.827,17.517,1.827,11.304V2C26.688,14.416,60.862,20.618,91.934,26.821z"/>
</svg>
